<mxfile host="app.diagrams.net" modified="2020-10-29T15:42:56.112Z" agent="5.0 (Macintosh; Intel Mac OS X 10_15_6) AppleWebKit/537.36 (KHTML, like Gecko) Chrome/86.0.4240.111 Safari/537.36" etag="r6XG1Ys5o_0Yg8Wrljfv" version="13.8.2" type="github">
  <diagram id="LlDYJdCx942PZiaZdrjV" name="Page-1">
    <mxGraphModel dx="1351" dy="741" grid="1" gridSize="10" guides="1" tooltips="1" connect="1" arrows="1" fold="1" page="1" pageScale="1" pageWidth="827" pageHeight="1169" math="0" shadow="0">
      <root>
        <mxCell id="0" />
        <mxCell id="1" parent="0" />
        <mxCell id="Ozg4WGDt-D8WB1Kf42Ut-2" style="edgeStyle=orthogonalEdgeStyle;rounded=0;orthogonalLoop=1;jettySize=auto;html=1;exitX=0.5;exitY=0.5;exitDx=0;exitDy=15;exitPerimeter=0;entryX=0.5;entryY=0;entryDx=0;entryDy=0;" parent="1" source="Ozg4WGDt-D8WB1Kf42Ut-3" target="Ozg4WGDt-D8WB1Kf42Ut-5" edge="1">
          <mxGeometry relative="1" as="geometry" />
        </mxCell>
        <mxCell id="Ozg4WGDt-D8WB1Kf42Ut-3" value="&lt;font style=&quot;font-size: 9px&quot;&gt;Start&lt;/font&gt;" style="html=1;dashed=0;whitespace=wrap;shape=mxgraph.dfd.start" parent="1" vertex="1">
          <mxGeometry x="347" y="10" width="80" height="30" as="geometry" />
        </mxCell>
        <mxCell id="Ozg4WGDt-D8WB1Kf42Ut-4" style="edgeStyle=orthogonalEdgeStyle;rounded=0;orthogonalLoop=1;jettySize=auto;html=1;exitX=0.5;exitY=1;exitDx=0;exitDy=0;entryX=0.5;entryY=0;entryDx=0;entryDy=0;" parent="1" source="Ozg4WGDt-D8WB1Kf42Ut-5" target="Ozg4WGDt-D8WB1Kf42Ut-8" edge="1">
          <mxGeometry relative="1" as="geometry" />
        </mxCell>
        <mxCell id="Ozg4WGDt-D8WB1Kf42Ut-5" value="&lt;font style=&quot;font-size: 9px&quot;&gt;i = 1&lt;/font&gt;" style="rounded=0;whiteSpace=wrap;html=1;" parent="1" vertex="1">
          <mxGeometry x="347" y="60" width="80" height="30" as="geometry" />
        </mxCell>
        <mxCell id="Ozg4WGDt-D8WB1Kf42Ut-6" style="edgeStyle=orthogonalEdgeStyle;rounded=0;orthogonalLoop=1;jettySize=auto;html=1;exitX=0.5;exitY=1;exitDx=0;exitDy=0;" parent="1" source="Ozg4WGDt-D8WB1Kf42Ut-8" edge="1">
          <mxGeometry relative="1" as="geometry">
            <mxPoint x="386.9999999999998" y="240" as="targetPoint" />
          </mxGeometry>
        </mxCell>
        <mxCell id="Ozg4WGDt-D8WB1Kf42Ut-7" style="edgeStyle=orthogonalEdgeStyle;rounded=0;orthogonalLoop=1;jettySize=auto;html=1;exitX=0;exitY=0.5;exitDx=0;exitDy=0;entryX=0.5;entryY=0;entryDx=0;entryDy=0;" parent="1" source="Ozg4WGDt-D8WB1Kf42Ut-8" target="Ozg4WGDt-D8WB1Kf42Ut-97" edge="1">
          <mxGeometry relative="1" as="geometry" />
        </mxCell>
        <mxCell id="Ozg4WGDt-D8WB1Kf42Ut-8" value="&lt;font color=&quot;#24292e&quot; size=&quot;1&quot;&gt;&lt;span style=&quot;background-color: rgb(255 , 255 , 255)&quot;&gt;i &amp;lt;= 10&lt;/span&gt;&lt;/font&gt;" style="rhombus;whiteSpace=wrap;html=1;" parent="1" vertex="1">
          <mxGeometry x="347" y="120" width="80" height="70" as="geometry" />
        </mxCell>
        <mxCell id="OTiHRIJPwPJBLbjDcei9-1" style="edgeStyle=orthogonalEdgeStyle;rounded=0;orthogonalLoop=1;jettySize=auto;html=1;exitX=0;exitY=0.5;exitDx=0;exitDy=0;exitPerimeter=0;entryX=0;entryY=0.5;entryDx=0;entryDy=0;entryPerimeter=0;dashed=1;" edge="1" parent="1" source="Ozg4WGDt-D8WB1Kf42Ut-9" target="Ozg4WGDt-D8WB1Kf42Ut-3">
          <mxGeometry relative="1" as="geometry">
            <Array as="points">
              <mxPoint x="20" y="325" />
              <mxPoint x="20" y="25" />
            </Array>
          </mxGeometry>
        </mxCell>
        <mxCell id="Ozg4WGDt-D8WB1Kf42Ut-9" value="&lt;font style=&quot;font-size: 9px&quot;&gt;End&lt;/font&gt;" style="html=1;dashed=0;whitespace=wrap;shape=mxgraph.dfd.start" parent="1" vertex="1">
          <mxGeometry x="57" y="310" width="80" height="30" as="geometry" />
        </mxCell>
        <mxCell id="Ozg4WGDt-D8WB1Kf42Ut-10" value="&lt;font style=&quot;font-size: 9px&quot;&gt;No&lt;/font&gt;" style="text;html=1;align=center;verticalAlign=middle;resizable=0;points=[];autosize=1;" parent="1" vertex="1">
          <mxGeometry x="312" y="130" width="30" height="20" as="geometry" />
        </mxCell>
        <mxCell id="Ozg4WGDt-D8WB1Kf42Ut-11" style="edgeStyle=orthogonalEdgeStyle;rounded=0;orthogonalLoop=1;jettySize=auto;html=1;exitX=1;exitY=0.5;exitDx=0;exitDy=0;entryX=0.5;entryY=0;entryDx=0;entryDy=0;" parent="1" source="Ozg4WGDt-D8WB1Kf42Ut-13" target="Ozg4WGDt-D8WB1Kf42Ut-18" edge="1">
          <mxGeometry relative="1" as="geometry" />
        </mxCell>
        <mxCell id="Ozg4WGDt-D8WB1Kf42Ut-12" style="edgeStyle=orthogonalEdgeStyle;rounded=0;orthogonalLoop=1;jettySize=auto;html=1;exitX=0.5;exitY=1;exitDx=0;exitDy=0;entryX=0.5;entryY=0;entryDx=0;entryDy=0;" parent="1" source="Ozg4WGDt-D8WB1Kf42Ut-13" target="Ozg4WGDt-D8WB1Kf42Ut-21" edge="1">
          <mxGeometry relative="1" as="geometry" />
        </mxCell>
        <mxCell id="Ozg4WGDt-D8WB1Kf42Ut-13" value="&lt;font color=&quot;#24292e&quot; size=&quot;1&quot;&gt;&lt;span style=&quot;background-color: rgb(255 , 255 , 255)&quot;&gt;j &amp;lt;= 10&lt;/span&gt;&lt;/font&gt;" style="rhombus;whiteSpace=wrap;html=1;" parent="1" vertex="1">
          <mxGeometry x="347" y="310" width="80" height="70" as="geometry" />
        </mxCell>
        <mxCell id="Ozg4WGDt-D8WB1Kf42Ut-14" value="&lt;font style=&quot;font-size: 9px&quot;&gt;Yes&lt;/font&gt;" style="text;html=1;align=center;verticalAlign=middle;resizable=0;points=[];autosize=1;" parent="1" vertex="1">
          <mxGeometry x="357" y="180" width="30" height="20" as="geometry" />
        </mxCell>
        <mxCell id="Ozg4WGDt-D8WB1Kf42Ut-15" style="edgeStyle=orthogonalEdgeStyle;rounded=0;orthogonalLoop=1;jettySize=auto;html=1;exitX=0.5;exitY=1;exitDx=0;exitDy=0;entryX=0.5;entryY=0;entryDx=0;entryDy=0;" parent="1" source="Ozg4WGDt-D8WB1Kf42Ut-16" target="Ozg4WGDt-D8WB1Kf42Ut-13" edge="1">
          <mxGeometry relative="1" as="geometry" />
        </mxCell>
        <mxCell id="Ozg4WGDt-D8WB1Kf42Ut-16" value="&lt;font style=&quot;font-size: 9px&quot;&gt;j = 1&lt;/font&gt;" style="rounded=0;whiteSpace=wrap;html=1;" parent="1" vertex="1">
          <mxGeometry x="347" y="240" width="80" height="30" as="geometry" />
        </mxCell>
        <mxCell id="Ozg4WGDt-D8WB1Kf42Ut-17" style="edgeStyle=orthogonalEdgeStyle;rounded=0;orthogonalLoop=1;jettySize=auto;html=1;exitX=0.5;exitY=1;exitDx=0;exitDy=0;" parent="1" source="Ozg4WGDt-D8WB1Kf42Ut-18" edge="1">
          <mxGeometry relative="1" as="geometry">
            <mxPoint x="387.8333333333335" y="105.83333333333337" as="targetPoint" />
            <Array as="points">
              <mxPoint x="517" y="420" />
              <mxPoint x="607" y="420" />
              <mxPoint x="607" y="106" />
            </Array>
          </mxGeometry>
        </mxCell>
        <mxCell id="Ozg4WGDt-D8WB1Kf42Ut-18" value="&lt;font style=&quot;font-size: 9px&quot;&gt;i++&lt;/font&gt;" style="rounded=0;whiteSpace=wrap;html=1;" parent="1" vertex="1">
          <mxGeometry x="477" y="370" width="80" height="30" as="geometry" />
        </mxCell>
        <mxCell id="Ozg4WGDt-D8WB1Kf42Ut-19" value="&lt;font style=&quot;font-size: 9px&quot;&gt;No&lt;/font&gt;" style="text;html=1;align=center;verticalAlign=middle;resizable=0;points=[];autosize=1;" parent="1" vertex="1">
          <mxGeometry x="427" y="320" width="30" height="20" as="geometry" />
        </mxCell>
        <mxCell id="Ozg4WGDt-D8WB1Kf42Ut-20" style="edgeStyle=orthogonalEdgeStyle;rounded=0;orthogonalLoop=1;jettySize=auto;html=1;exitX=0.5;exitY=1;exitDx=0;exitDy=0;entryX=0.5;entryY=0;entryDx=0;entryDy=0;" parent="1" source="Ozg4WGDt-D8WB1Kf42Ut-21" target="Ozg4WGDt-D8WB1Kf42Ut-24" edge="1">
          <mxGeometry relative="1" as="geometry" />
        </mxCell>
        <mxCell id="Ozg4WGDt-D8WB1Kf42Ut-21" value="&lt;font style=&quot;font-size: 9px&quot;&gt;k = 1&lt;/font&gt;" style="rounded=0;whiteSpace=wrap;html=1;" parent="1" vertex="1">
          <mxGeometry x="347" y="420" width="80" height="30" as="geometry" />
        </mxCell>
        <mxCell id="Ozg4WGDt-D8WB1Kf42Ut-22" style="edgeStyle=orthogonalEdgeStyle;rounded=0;orthogonalLoop=1;jettySize=auto;html=1;exitX=0;exitY=0.5;exitDx=0;exitDy=0;entryX=0.5;entryY=0;entryDx=0;entryDy=0;" parent="1" source="Ozg4WGDt-D8WB1Kf42Ut-24" target="Ozg4WGDt-D8WB1Kf42Ut-26" edge="1">
          <mxGeometry relative="1" as="geometry" />
        </mxCell>
        <mxCell id="Ozg4WGDt-D8WB1Kf42Ut-23" style="edgeStyle=orthogonalEdgeStyle;rounded=0;orthogonalLoop=1;jettySize=auto;html=1;exitX=0.5;exitY=1;exitDx=0;exitDy=0;entryX=0.5;entryY=0;entryDx=0;entryDy=0;" parent="1" source="Ozg4WGDt-D8WB1Kf42Ut-24" target="Ozg4WGDt-D8WB1Kf42Ut-29" edge="1">
          <mxGeometry relative="1" as="geometry" />
        </mxCell>
        <mxCell id="Ozg4WGDt-D8WB1Kf42Ut-24" value="&lt;font color=&quot;#24292e&quot; size=&quot;1&quot;&gt;&lt;span style=&quot;background-color: rgb(255 , 255 , 255)&quot;&gt;k &amp;lt;= 10&lt;/span&gt;&lt;/font&gt;" style="rhombus;whiteSpace=wrap;html=1;" parent="1" vertex="1">
          <mxGeometry x="347" y="480" width="80" height="70" as="geometry" />
        </mxCell>
        <mxCell id="Ozg4WGDt-D8WB1Kf42Ut-25" style="edgeStyle=orthogonalEdgeStyle;rounded=0;orthogonalLoop=1;jettySize=auto;html=1;exitX=0.5;exitY=1;exitDx=0;exitDy=0;" parent="1" source="Ozg4WGDt-D8WB1Kf42Ut-26" edge="1">
          <mxGeometry relative="1" as="geometry">
            <mxPoint x="386.9999999999998" y="276" as="targetPoint" />
            <Array as="points">
              <mxPoint x="267" y="600" />
              <mxPoint x="187" y="600" />
              <mxPoint x="187" y="276" />
            </Array>
          </mxGeometry>
        </mxCell>
        <mxCell id="Ozg4WGDt-D8WB1Kf42Ut-26" value="&lt;font style=&quot;font-size: 9px&quot;&gt;j++&lt;/font&gt;" style="rounded=0;whiteSpace=wrap;html=1;" parent="1" vertex="1">
          <mxGeometry x="227" y="550" width="80" height="30" as="geometry" />
        </mxCell>
        <mxCell id="Ozg4WGDt-D8WB1Kf42Ut-27" value="&lt;font style=&quot;font-size: 9px&quot;&gt;No&lt;/font&gt;" style="text;html=1;align=center;verticalAlign=middle;resizable=0;points=[];autosize=1;" parent="1" vertex="1">
          <mxGeometry x="312" y="490" width="30" height="20" as="geometry" />
        </mxCell>
        <mxCell id="Ozg4WGDt-D8WB1Kf42Ut-28" style="edgeStyle=orthogonalEdgeStyle;rounded=0;orthogonalLoop=1;jettySize=auto;html=1;exitX=0.5;exitY=1;exitDx=0;exitDy=0;entryX=0.5;entryY=0;entryDx=0;entryDy=0;" parent="1" source="Ozg4WGDt-D8WB1Kf42Ut-29" target="Ozg4WGDt-D8WB1Kf42Ut-33" edge="1">
          <mxGeometry relative="1" as="geometry" />
        </mxCell>
        <mxCell id="Ozg4WGDt-D8WB1Kf42Ut-29" value="&lt;font style=&quot;font-size: 9px&quot;&gt;l = 1&lt;/font&gt;" style="rounded=0;whiteSpace=wrap;html=1;" parent="1" vertex="1">
          <mxGeometry x="347" y="610" width="80" height="30" as="geometry" />
        </mxCell>
        <mxCell id="Ozg4WGDt-D8WB1Kf42Ut-30" value="&lt;font style=&quot;font-size: 9px&quot;&gt;Yes&lt;/font&gt;" style="text;html=1;align=center;verticalAlign=middle;resizable=0;points=[];autosize=1;" parent="1" vertex="1">
          <mxGeometry x="392" y="550" width="30" height="20" as="geometry" />
        </mxCell>
        <mxCell id="Ozg4WGDt-D8WB1Kf42Ut-31" value="&lt;font style=&quot;font-size: 9px&quot;&gt;Yes&lt;/font&gt;" style="text;html=1;align=center;verticalAlign=middle;resizable=0;points=[];autosize=1;" parent="1" vertex="1">
          <mxGeometry x="382" y="380" width="30" height="20" as="geometry" />
        </mxCell>
        <mxCell id="Ozg4WGDt-D8WB1Kf42Ut-32" style="edgeStyle=orthogonalEdgeStyle;rounded=0;orthogonalLoop=1;jettySize=auto;html=1;exitX=1;exitY=0.5;exitDx=0;exitDy=0;entryX=0.5;entryY=0;entryDx=0;entryDy=0;" parent="1" source="Ozg4WGDt-D8WB1Kf42Ut-33" target="Ozg4WGDt-D8WB1Kf42Ut-35" edge="1">
          <mxGeometry relative="1" as="geometry" />
        </mxCell>
        <mxCell id="Ozg4WGDt-D8WB1Kf42Ut-33" value="&lt;font color=&quot;#24292e&quot; size=&quot;1&quot;&gt;&lt;span style=&quot;background-color: rgb(255 , 255 , 255)&quot;&gt;l &amp;lt;= 10&lt;/span&gt;&lt;/font&gt;" style="rhombus;whiteSpace=wrap;html=1;" parent="1" vertex="1">
          <mxGeometry x="347" y="670" width="80" height="70" as="geometry" />
        </mxCell>
        <mxCell id="Ozg4WGDt-D8WB1Kf42Ut-34" style="edgeStyle=orthogonalEdgeStyle;rounded=0;orthogonalLoop=1;jettySize=auto;html=1;exitX=0.5;exitY=1;exitDx=0;exitDy=0;" parent="1" source="Ozg4WGDt-D8WB1Kf42Ut-35" edge="1">
          <mxGeometry relative="1" as="geometry">
            <mxPoint x="386.9999999999998" y="460" as="targetPoint" />
            <Array as="points">
              <mxPoint x="517" y="770" />
              <mxPoint x="607" y="770" />
              <mxPoint x="607" y="460" />
            </Array>
          </mxGeometry>
        </mxCell>
        <mxCell id="Ozg4WGDt-D8WB1Kf42Ut-35" value="&lt;font style=&quot;font-size: 9px&quot;&gt;k++&lt;/font&gt;" style="rounded=0;whiteSpace=wrap;html=1;" parent="1" vertex="1">
          <mxGeometry x="477" y="725" width="80" height="30" as="geometry" />
        </mxCell>
        <mxCell id="Ozg4WGDt-D8WB1Kf42Ut-36" value="&lt;font style=&quot;font-size: 9px&quot;&gt;No&lt;/font&gt;" style="text;html=1;align=center;verticalAlign=middle;resizable=0;points=[];autosize=1;" parent="1" vertex="1">
          <mxGeometry x="427" y="680" width="30" height="20" as="geometry" />
        </mxCell>
        <mxCell id="Ozg4WGDt-D8WB1Kf42Ut-37" style="edgeStyle=orthogonalEdgeStyle;rounded=0;orthogonalLoop=1;jettySize=auto;html=1;entryX=0.5;entryY=0;entryDx=0;entryDy=0;exitX=0.5;exitY=1;exitDx=0;exitDy=0;" parent="1" source="Ozg4WGDt-D8WB1Kf42Ut-33" target="Ozg4WGDt-D8WB1Kf42Ut-39" edge="1">
          <mxGeometry relative="1" as="geometry">
            <mxPoint x="387" y="750" as="sourcePoint" />
          </mxGeometry>
        </mxCell>
        <mxCell id="Ozg4WGDt-D8WB1Kf42Ut-38" style="edgeStyle=orthogonalEdgeStyle;rounded=0;orthogonalLoop=1;jettySize=auto;html=1;exitX=0.5;exitY=1;exitDx=0;exitDy=0;entryX=0.5;entryY=0;entryDx=0;entryDy=0;" parent="1" source="Ozg4WGDt-D8WB1Kf42Ut-39" target="Ozg4WGDt-D8WB1Kf42Ut-42" edge="1">
          <mxGeometry relative="1" as="geometry" />
        </mxCell>
        <mxCell id="Ozg4WGDt-D8WB1Kf42Ut-39" value="&lt;font style=&quot;font-size: 9px&quot;&gt;m = 1&lt;/font&gt;" style="rounded=0;whiteSpace=wrap;html=1;" parent="1" vertex="1">
          <mxGeometry x="347" y="780" width="80" height="30" as="geometry" />
        </mxCell>
        <mxCell id="Ozg4WGDt-D8WB1Kf42Ut-40" value="&lt;font style=&quot;font-size: 9px&quot;&gt;Yes&lt;/font&gt;" style="text;html=1;align=center;verticalAlign=middle;resizable=0;points=[];autosize=1;" parent="1" vertex="1">
          <mxGeometry x="392" y="730" width="30" height="20" as="geometry" />
        </mxCell>
        <mxCell id="Ozg4WGDt-D8WB1Kf42Ut-41" style="edgeStyle=orthogonalEdgeStyle;rounded=0;orthogonalLoop=1;jettySize=auto;html=1;exitX=0;exitY=0.5;exitDx=0;exitDy=0;entryX=0.5;entryY=0;entryDx=0;entryDy=0;" parent="1" source="Ozg4WGDt-D8WB1Kf42Ut-42" target="Ozg4WGDt-D8WB1Kf42Ut-44" edge="1">
          <mxGeometry relative="1" as="geometry" />
        </mxCell>
        <mxCell id="Ozg4WGDt-D8WB1Kf42Ut-42" value="&lt;font color=&quot;#24292e&quot; size=&quot;1&quot;&gt;&lt;span style=&quot;background-color: rgb(255 , 255 , 255)&quot;&gt;m &amp;lt;= 10&lt;/span&gt;&lt;/font&gt;" style="rhombus;whiteSpace=wrap;html=1;" parent="1" vertex="1">
          <mxGeometry x="347" y="840" width="80" height="70" as="geometry" />
        </mxCell>
        <mxCell id="Ozg4WGDt-D8WB1Kf42Ut-43" style="edgeStyle=orthogonalEdgeStyle;rounded=0;orthogonalLoop=1;jettySize=auto;html=1;exitX=0.5;exitY=1;exitDx=0;exitDy=0;" parent="1" source="Ozg4WGDt-D8WB1Kf42Ut-44" edge="1">
          <mxGeometry relative="1" as="geometry">
            <mxPoint x="386.9999999999998" y="650" as="targetPoint" />
            <Array as="points">
              <mxPoint x="267" y="960" />
              <mxPoint x="187" y="960" />
              <mxPoint x="187" y="650" />
            </Array>
          </mxGeometry>
        </mxCell>
        <mxCell id="Ozg4WGDt-D8WB1Kf42Ut-44" value="&lt;font style=&quot;font-size: 9px&quot;&gt;l++&lt;/font&gt;" style="rounded=0;whiteSpace=wrap;html=1;" parent="1" vertex="1">
          <mxGeometry x="227" y="910" width="80" height="30" as="geometry" />
        </mxCell>
        <mxCell id="Ozg4WGDt-D8WB1Kf42Ut-45" value="&lt;font style=&quot;font-size: 9px&quot;&gt;No&lt;/font&gt;" style="text;html=1;align=center;verticalAlign=middle;resizable=0;points=[];autosize=1;" parent="1" vertex="1">
          <mxGeometry x="312" y="850" width="30" height="20" as="geometry" />
        </mxCell>
        <mxCell id="Ozg4WGDt-D8WB1Kf42Ut-46" style="edgeStyle=orthogonalEdgeStyle;rounded=0;orthogonalLoop=1;jettySize=auto;html=1;exitX=0.5;exitY=1;exitDx=0;exitDy=0;entryX=0.5;entryY=0;entryDx=0;entryDy=0;" parent="1" target="Ozg4WGDt-D8WB1Kf42Ut-48" edge="1">
          <mxGeometry relative="1" as="geometry">
            <mxPoint x="386.9999999999998" y="909.9999999999998" as="sourcePoint" />
          </mxGeometry>
        </mxCell>
        <mxCell id="Ozg4WGDt-D8WB1Kf42Ut-47" style="edgeStyle=orthogonalEdgeStyle;rounded=0;orthogonalLoop=1;jettySize=auto;html=1;exitX=0.5;exitY=1;exitDx=0;exitDy=0;entryX=0.5;entryY=0;entryDx=0;entryDy=0;" parent="1" source="Ozg4WGDt-D8WB1Kf42Ut-48" target="Ozg4WGDt-D8WB1Kf42Ut-51" edge="1">
          <mxGeometry relative="1" as="geometry" />
        </mxCell>
        <mxCell id="Ozg4WGDt-D8WB1Kf42Ut-48" value="&lt;font style=&quot;font-size: 9px&quot;&gt;n = 1&lt;/font&gt;" style="rounded=0;whiteSpace=wrap;html=1;" parent="1" vertex="1">
          <mxGeometry x="347" y="970" width="80" height="30" as="geometry" />
        </mxCell>
        <mxCell id="Ozg4WGDt-D8WB1Kf42Ut-49" value="&lt;font style=&quot;font-size: 9px&quot;&gt;Yes&lt;/font&gt;" style="text;html=1;align=center;verticalAlign=middle;resizable=0;points=[];autosize=1;" parent="1" vertex="1">
          <mxGeometry x="392" y="910" width="30" height="20" as="geometry" />
        </mxCell>
        <mxCell id="Ozg4WGDt-D8WB1Kf42Ut-50" style="edgeStyle=orthogonalEdgeStyle;rounded=0;orthogonalLoop=1;jettySize=auto;html=1;exitX=1;exitY=0.5;exitDx=0;exitDy=0;entryX=0.5;entryY=0;entryDx=0;entryDy=0;" parent="1" source="Ozg4WGDt-D8WB1Kf42Ut-51" target="Ozg4WGDt-D8WB1Kf42Ut-53" edge="1">
          <mxGeometry relative="1" as="geometry" />
        </mxCell>
        <mxCell id="OTiHRIJPwPJBLbjDcei9-5" style="edgeStyle=orthogonalEdgeStyle;rounded=0;orthogonalLoop=1;jettySize=auto;html=1;exitX=0.5;exitY=1;exitDx=0;exitDy=0;entryX=0.5;entryY=0;entryDx=0;entryDy=0;entryPerimeter=0;endArrow=none;endFill=0;" edge="1" parent="1" source="Ozg4WGDt-D8WB1Kf42Ut-51" target="OTiHRIJPwPJBLbjDcei9-4">
          <mxGeometry relative="1" as="geometry" />
        </mxCell>
        <mxCell id="Ozg4WGDt-D8WB1Kf42Ut-51" value="&lt;font color=&quot;#24292e&quot; size=&quot;1&quot;&gt;&lt;span style=&quot;background-color: rgb(255 , 255 , 255)&quot;&gt;n &amp;lt;= 10&lt;/span&gt;&lt;/font&gt;" style="rhombus;whiteSpace=wrap;html=1;" parent="1" vertex="1">
          <mxGeometry x="347" y="1030" width="80" height="70" as="geometry" />
        </mxCell>
        <mxCell id="Ozg4WGDt-D8WB1Kf42Ut-52" style="edgeStyle=orthogonalEdgeStyle;rounded=0;orthogonalLoop=1;jettySize=auto;html=1;exitX=0.5;exitY=1;exitDx=0;exitDy=0;" parent="1" source="Ozg4WGDt-D8WB1Kf42Ut-53" edge="1">
          <mxGeometry relative="1" as="geometry">
            <mxPoint x="386.9999999999998" y="819.9999999999998" as="targetPoint" />
            <Array as="points">
              <mxPoint x="517" y="1135" />
              <mxPoint x="607" y="1135" />
              <mxPoint x="607" y="820" />
            </Array>
          </mxGeometry>
        </mxCell>
        <mxCell id="Ozg4WGDt-D8WB1Kf42Ut-53" value="&lt;font style=&quot;font-size: 9px&quot;&gt;m++&lt;/font&gt;" style="rounded=0;whiteSpace=wrap;html=1;" parent="1" vertex="1">
          <mxGeometry x="477" y="1085" width="80" height="30" as="geometry" />
        </mxCell>
        <mxCell id="Ozg4WGDt-D8WB1Kf42Ut-54" value="&lt;font style=&quot;font-size: 9px&quot;&gt;No&lt;/font&gt;" style="text;html=1;align=center;verticalAlign=middle;resizable=0;points=[];autosize=1;" parent="1" vertex="1">
          <mxGeometry x="427" y="1040" width="30" height="20" as="geometry" />
        </mxCell>
        <mxCell id="Ozg4WGDt-D8WB1Kf42Ut-56" value="&lt;font style=&quot;font-size: 9px&quot;&gt;Yes&lt;/font&gt;" style="text;html=1;align=center;verticalAlign=middle;resizable=0;points=[];autosize=1;" parent="1" vertex="1">
          <mxGeometry x="392" y="1090" width="30" height="20" as="geometry" />
        </mxCell>
        <mxCell id="Ozg4WGDt-D8WB1Kf42Ut-57" style="edgeStyle=orthogonalEdgeStyle;rounded=0;orthogonalLoop=1;jettySize=auto;html=1;exitX=0.5;exitY=1;exitDx=0;exitDy=0;entryX=0.5;entryY=0;entryDx=0;entryDy=0;" parent="1" source="Ozg4WGDt-D8WB1Kf42Ut-58" target="Ozg4WGDt-D8WB1Kf42Ut-61" edge="1">
          <mxGeometry relative="1" as="geometry" />
        </mxCell>
        <mxCell id="Ozg4WGDt-D8WB1Kf42Ut-58" value="&lt;font style=&quot;font-size: 9px&quot;&gt;&lt;span style=&quot;color: rgb(36 , 41 , 46) ; font-family: , &amp;#34;consolas&amp;#34; , &amp;#34;liberation mono&amp;#34; , &amp;#34;menlo&amp;#34; , monospace ; background-color: rgb(255 , 255 , 255)&quot;&gt;num &lt;/span&gt;&lt;span class=&quot;pl-k&quot; style=&quot;box-sizing: border-box ; color: rgb(215 , 58 , 73) ; font-family: , &amp;#34;consolas&amp;#34; , &amp;#34;liberation mono&amp;#34; , &amp;#34;menlo&amp;#34; , monospace ; background-color: rgb(255 , 255 , 255)&quot;&gt;=&lt;/span&gt;&lt;span style=&quot;color: rgb(36 , 41 , 46) ; font-family: , &amp;#34;consolas&amp;#34; , &amp;#34;liberation mono&amp;#34; , &amp;#34;menlo&amp;#34; , monospace ; background-color: rgb(255 , 255 , 255)&quot;&gt; i &lt;/span&gt;&lt;span class=&quot;pl-k&quot; style=&quot;box-sizing: border-box ; color: rgb(215 , 58 , 73) ; font-family: , &amp;#34;consolas&amp;#34; , &amp;#34;liberation mono&amp;#34; , &amp;#34;menlo&amp;#34; , monospace ; background-color: rgb(255 , 255 , 255)&quot;&gt;+&lt;/span&gt;&lt;span style=&quot;color: rgb(36 , 41 , 46) ; font-family: , &amp;#34;consolas&amp;#34; , &amp;#34;liberation mono&amp;#34; , &amp;#34;menlo&amp;#34; , monospace ; background-color: rgb(255 , 255 , 255)&quot;&gt; j &lt;/span&gt;&lt;span class=&quot;pl-k&quot; style=&quot;box-sizing: border-box ; color: rgb(215 , 58 , 73) ; font-family: , &amp;#34;consolas&amp;#34; , &amp;#34;liberation mono&amp;#34; , &amp;#34;menlo&amp;#34; , monospace ; background-color: rgb(255 , 255 , 255)&quot;&gt;+&lt;/span&gt;&lt;span style=&quot;color: rgb(36 , 41 , 46) ; font-family: , &amp;#34;consolas&amp;#34; , &amp;#34;liberation mono&amp;#34; , &amp;#34;menlo&amp;#34; , monospace ; background-color: rgb(255 , 255 , 255)&quot;&gt; k &lt;/span&gt;&lt;span class=&quot;pl-k&quot; style=&quot;box-sizing: border-box ; color: rgb(215 , 58 , 73) ; font-family: , &amp;#34;consolas&amp;#34; , &amp;#34;liberation mono&amp;#34; , &amp;#34;menlo&amp;#34; , monospace ; background-color: rgb(255 , 255 , 255)&quot;&gt;+&lt;/span&gt;&lt;span style=&quot;color: rgb(36 , 41 , 46) ; font-family: , &amp;#34;consolas&amp;#34; , &amp;#34;liberation mono&amp;#34; , &amp;#34;menlo&amp;#34; , monospace ; background-color: rgb(255 , 255 , 255)&quot;&gt; l &lt;/span&gt;&lt;span class=&quot;pl-k&quot; style=&quot;box-sizing: border-box ; color: rgb(215 , 58 , 73) ; font-family: , &amp;#34;consolas&amp;#34; , &amp;#34;liberation mono&amp;#34; , &amp;#34;menlo&amp;#34; , monospace ; background-color: rgb(255 , 255 , 255)&quot;&gt;+&lt;/span&gt;&lt;span style=&quot;color: rgb(36 , 41 , 46) ; font-family: , &amp;#34;consolas&amp;#34; , &amp;#34;liberation mono&amp;#34; , &amp;#34;menlo&amp;#34; , monospace ; background-color: rgb(255 , 255 , 255)&quot;&gt; m &lt;/span&gt;&lt;span class=&quot;pl-k&quot; style=&quot;box-sizing: border-box ; color: rgb(215 , 58 , 73) ; font-family: , &amp;#34;consolas&amp;#34; , &amp;#34;liberation mono&amp;#34; , &amp;#34;menlo&amp;#34; , monospace ; background-color: rgb(255 , 255 , 255)&quot;&gt;+&lt;/span&gt;&lt;span style=&quot;color: rgb(36 , 41 , 46) ; font-family: , &amp;#34;consolas&amp;#34; , &amp;#34;liberation mono&amp;#34; , &amp;#34;menlo&amp;#34; , monospace ; background-color: rgb(255 , 255 , 255)&quot;&gt; n&lt;/span&gt;&lt;/font&gt;" style="rounded=0;whiteSpace=wrap;html=1;" parent="1" vertex="1">
          <mxGeometry x="347" y="1240" width="80" height="40" as="geometry" />
        </mxCell>
        <mxCell id="Ozg4WGDt-D8WB1Kf42Ut-59" style="edgeStyle=orthogonalEdgeStyle;rounded=0;orthogonalLoop=1;jettySize=auto;html=1;exitX=1;exitY=0.5;exitDx=0;exitDy=0;entryX=0.5;entryY=0;entryDx=0;entryDy=0;" parent="1" source="Ozg4WGDt-D8WB1Kf42Ut-61" target="Ozg4WGDt-D8WB1Kf42Ut-64" edge="1">
          <mxGeometry relative="1" as="geometry" />
        </mxCell>
        <mxCell id="Ozg4WGDt-D8WB1Kf42Ut-60" style="edgeStyle=orthogonalEdgeStyle;rounded=0;orthogonalLoop=1;jettySize=auto;html=1;exitX=0.5;exitY=1;exitDx=0;exitDy=0;entryX=0.5;entryY=0;entryDx=0;entryDy=0;" parent="1" source="Ozg4WGDt-D8WB1Kf42Ut-61" target="Ozg4WGDt-D8WB1Kf42Ut-82" edge="1">
          <mxGeometry relative="1" as="geometry" />
        </mxCell>
        <mxCell id="Ozg4WGDt-D8WB1Kf42Ut-61" value="&lt;font style=&quot;font-size: 9px&quot;&gt;&lt;span style=&quot;color: rgb(36 , 41 , 46) ; font-family: , &amp;#34;consolas&amp;#34; , &amp;#34;liberation mono&amp;#34; , &amp;#34;menlo&amp;#34; , monospace ; background-color: rgb(255 , 255 , 255)&quot;&gt;num &lt;/span&gt;&lt;span class=&quot;pl-k&quot; style=&quot;box-sizing: border-box ; color: rgb(215 , 58 , 73) ; font-family: , &amp;#34;consolas&amp;#34; , &amp;#34;liberation mono&amp;#34; , &amp;#34;menlo&amp;#34; , monospace ; background-color: rgb(255 , 255 , 255)&quot;&gt;&amp;lt;&lt;/span&gt;&lt;span style=&quot;color: rgb(36 , 41 , 46) ; font-family: , &amp;#34;consolas&amp;#34; , &amp;#34;liberation mono&amp;#34; , &amp;#34;menlo&amp;#34; , monospace ; background-color: rgb(255 , 255 , 255)&quot;&gt; &lt;/span&gt;&lt;span class=&quot;pl-c1&quot; style=&quot;box-sizing: border-box ; color: rgb(0 , 92 , 197) ; font-family: , &amp;#34;consolas&amp;#34; , &amp;#34;liberation mono&amp;#34; , &amp;#34;menlo&amp;#34; , monospace ; background-color: rgb(255 , 255 , 255)&quot;&gt;50&lt;/span&gt;&lt;/font&gt;" style="rhombus;whiteSpace=wrap;html=1;" parent="1" vertex="1">
          <mxGeometry x="347" y="1320" width="80" height="70" as="geometry" />
        </mxCell>
        <mxCell id="Ozg4WGDt-D8WB1Kf42Ut-62" style="edgeStyle=orthogonalEdgeStyle;rounded=0;orthogonalLoop=1;jettySize=auto;html=1;exitX=0.5;exitY=1;exitDx=0;exitDy=0;entryX=0.5;entryY=0;entryDx=0;entryDy=0;" parent="1" source="Ozg4WGDt-D8WB1Kf42Ut-64" target="Ozg4WGDt-D8WB1Kf42Ut-67" edge="1">
          <mxGeometry relative="1" as="geometry" />
        </mxCell>
        <mxCell id="Ozg4WGDt-D8WB1Kf42Ut-63" style="edgeStyle=orthogonalEdgeStyle;rounded=0;orthogonalLoop=1;jettySize=auto;html=1;exitX=1;exitY=0.5;exitDx=0;exitDy=0;entryX=0.5;entryY=0;entryDx=0;entryDy=0;" parent="1" source="Ozg4WGDt-D8WB1Kf42Ut-64" target="Ozg4WGDt-D8WB1Kf42Ut-69" edge="1">
          <mxGeometry relative="1" as="geometry" />
        </mxCell>
        <mxCell id="Ozg4WGDt-D8WB1Kf42Ut-64" value="&lt;font style=&quot;font-size: 9px&quot;&gt;&lt;span style=&quot;color: rgb(36 , 41 , 46) ; font-family: , &amp;#34;consolas&amp;#34; , &amp;#34;liberation mono&amp;#34; , &amp;#34;menlo&amp;#34; , monospace ; background-color: rgb(255 , 255 , 255)&quot;&gt;num &lt;/span&gt;&lt;span style=&quot;background-color: rgb(255 , 255 , 255)&quot;&gt;&lt;font color=&quot;#d73a49&quot;&gt;=&lt;/font&gt;&lt;/span&gt;&lt;span style=&quot;color: rgb(36 , 41 , 46) ; font-family: , &amp;#34;consolas&amp;#34; , &amp;#34;liberation mono&amp;#34; , &amp;#34;menlo&amp;#34; , monospace ; background-color: rgb(255 , 255 , 255)&quot;&gt;&amp;nbsp;&lt;/span&gt;&lt;span style=&quot;background-color: rgb(255 , 255 , 255)&quot;&gt;&lt;font color=&quot;#005cc5&quot;&gt;10&lt;/font&gt;&lt;/span&gt;&lt;/font&gt;" style="rhombus;whiteSpace=wrap;html=1;" parent="1" vertex="1">
          <mxGeometry x="617" y="1440" width="80" height="70" as="geometry" />
        </mxCell>
        <mxCell id="Ozg4WGDt-D8WB1Kf42Ut-65" style="edgeStyle=orthogonalEdgeStyle;rounded=0;orthogonalLoop=1;jettySize=auto;html=1;exitX=1;exitY=0.5;exitDx=0;exitDy=0;entryX=0.5;entryY=0;entryDx=0;entryDy=0;" parent="1" source="Ozg4WGDt-D8WB1Kf42Ut-67" target="Ozg4WGDt-D8WB1Kf42Ut-71" edge="1">
          <mxGeometry relative="1" as="geometry" />
        </mxCell>
        <mxCell id="Ozg4WGDt-D8WB1Kf42Ut-66" style="edgeStyle=orthogonalEdgeStyle;rounded=0;orthogonalLoop=1;jettySize=auto;html=1;exitX=0.5;exitY=1;exitDx=0;exitDy=0;entryX=0.5;entryY=0;entryDx=0;entryDy=0;" parent="1" source="Ozg4WGDt-D8WB1Kf42Ut-67" target="Ozg4WGDt-D8WB1Kf42Ut-73" edge="1">
          <mxGeometry relative="1" as="geometry" />
        </mxCell>
        <mxCell id="Ozg4WGDt-D8WB1Kf42Ut-67" value="&lt;font style=&quot;font-size: 9px&quot;&gt;&lt;span style=&quot;color: rgb(36 , 41 , 46) ; font-family: , &amp;#34;consolas&amp;#34; , &amp;#34;liberation mono&amp;#34; , &amp;#34;menlo&amp;#34; , monospace ; background-color: rgb(255 , 255 , 255)&quot;&gt;num &lt;/span&gt;&lt;span style=&quot;background-color: rgb(255 , 255 , 255)&quot;&gt;&lt;font color=&quot;#d73a49&quot;&gt;=&lt;/font&gt;&lt;/span&gt;&lt;span style=&quot;color: rgb(36 , 41 , 46) ; font-family: , &amp;#34;consolas&amp;#34; , &amp;#34;liberation mono&amp;#34; , &amp;#34;menlo&amp;#34; , monospace ; background-color: rgb(255 , 255 , 255)&quot;&gt;&amp;nbsp;2&lt;/span&gt;&lt;span style=&quot;background-color: rgb(255 , 255 , 255)&quot;&gt;&lt;font color=&quot;#005cc5&quot;&gt;0&lt;/font&gt;&lt;/span&gt;&lt;/font&gt;" style="rhombus;whiteSpace=wrap;html=1;" parent="1" vertex="1">
          <mxGeometry x="617" y="1630" width="80" height="70" as="geometry" />
        </mxCell>
        <mxCell id="Ozg4WGDt-D8WB1Kf42Ut-68" style="edgeStyle=orthogonalEdgeStyle;rounded=0;orthogonalLoop=1;jettySize=auto;html=1;exitX=0.5;exitY=1;exitDx=0;exitDy=0;" parent="1" source="Ozg4WGDt-D8WB1Kf42Ut-69" edge="1">
          <mxGeometry relative="1" as="geometry">
            <mxPoint x="656.9999999999998" y="1590" as="targetPoint" />
            <Array as="points">
              <mxPoint x="787" y="1590" />
            </Array>
          </mxGeometry>
        </mxCell>
        <mxCell id="Ozg4WGDt-D8WB1Kf42Ut-69" value="&lt;font style=&quot;font-size: 9px&quot;&gt;Output&lt;br&gt;&quot;Yes it&#39;s 10&quot;&lt;br&gt;&lt;/font&gt;" style="shape=parallelogram;perimeter=parallelogramPerimeter;whiteSpace=wrap;html=1;fixedSize=1;" parent="1" vertex="1">
          <mxGeometry x="747" y="1510" width="80" height="40" as="geometry" />
        </mxCell>
        <mxCell id="Ozg4WGDt-D8WB1Kf42Ut-70" style="edgeStyle=orthogonalEdgeStyle;rounded=0;orthogonalLoop=1;jettySize=auto;html=1;exitX=0.5;exitY=1;exitDx=0;exitDy=0;" parent="1" source="Ozg4WGDt-D8WB1Kf42Ut-71" edge="1">
          <mxGeometry relative="1" as="geometry">
            <mxPoint x="656.9999999999998" y="1840" as="targetPoint" />
            <Array as="points">
              <mxPoint x="787" y="1840" />
            </Array>
          </mxGeometry>
        </mxCell>
        <mxCell id="Ozg4WGDt-D8WB1Kf42Ut-71" value="&lt;font&gt;&lt;font style=&quot;font-size: 9px&quot;&gt;&quot;&lt;span style=&quot;font-family: , &amp;#34;consolas&amp;#34; , &amp;#34;liberation mono&amp;#34; , &amp;#34;menlo&amp;#34; , monospace ; background-color: rgb(255 , 255 , 255)&quot;&gt;almost 20 !&lt;/span&gt;&quot;&lt;/font&gt;&lt;br&gt;&lt;/font&gt;" style="shape=parallelogram;perimeter=parallelogramPerimeter;whiteSpace=wrap;html=1;fixedSize=1;" parent="1" vertex="1">
          <mxGeometry x="747" y="1740" width="80" height="40" as="geometry" />
        </mxCell>
        <mxCell id="Ozg4WGDt-D8WB1Kf42Ut-72" style="edgeStyle=orthogonalEdgeStyle;rounded=0;orthogonalLoop=1;jettySize=auto;html=1;exitX=0.5;exitY=1;exitDx=0;exitDy=0;" parent="1" source="Ozg4WGDt-D8WB1Kf42Ut-73" edge="1">
          <mxGeometry relative="1" as="geometry">
            <mxPoint x="386.9999999999998" y="1870" as="targetPoint" />
            <Array as="points">
              <mxPoint x="657" y="1870" />
            </Array>
          </mxGeometry>
        </mxCell>
        <mxCell id="Ozg4WGDt-D8WB1Kf42Ut-73" value="&lt;font&gt;&lt;font style=&quot;font-size: 9px&quot;&gt;&quot;&lt;span style=&quot;font-family: , &amp;#34;consolas&amp;#34; , &amp;#34;liberation mono&amp;#34; , &amp;#34;menlo&amp;#34; , monospace ; background-color: rgb(255 , 255 , 255)&quot;&gt;most &lt;br&gt;common!&lt;/span&gt;&quot;&lt;/font&gt;&lt;br&gt;&lt;/font&gt;" style="shape=parallelogram;perimeter=parallelogramPerimeter;whiteSpace=wrap;html=1;fixedSize=1;" parent="1" vertex="1">
          <mxGeometry x="617" y="1740" width="80" height="40" as="geometry" />
        </mxCell>
        <mxCell id="Ozg4WGDt-D8WB1Kf42Ut-74" value="&lt;font style=&quot;font-size: 9px&quot;&gt;Yes&lt;/font&gt;" style="text;html=1;align=center;verticalAlign=middle;resizable=0;points=[];autosize=1;" parent="1" vertex="1">
          <mxGeometry x="702" y="1450" width="30" height="20" as="geometry" />
        </mxCell>
        <mxCell id="Ozg4WGDt-D8WB1Kf42Ut-75" value="&lt;font style=&quot;font-size: 9px&quot;&gt;No&lt;/font&gt;" style="text;html=1;align=center;verticalAlign=middle;resizable=0;points=[];autosize=1;" parent="1" vertex="1">
          <mxGeometry x="632" y="1510" width="30" height="20" as="geometry" />
        </mxCell>
        <mxCell id="Ozg4WGDt-D8WB1Kf42Ut-76" value="&lt;font style=&quot;font-size: 9px&quot;&gt;Yes&lt;/font&gt;" style="text;html=1;align=center;verticalAlign=middle;resizable=0;points=[];autosize=1;" parent="1" vertex="1">
          <mxGeometry x="702" y="1640" width="30" height="20" as="geometry" />
        </mxCell>
        <mxCell id="Ozg4WGDt-D8WB1Kf42Ut-77" value="&lt;font style=&quot;font-size: 9px&quot;&gt;No&lt;/font&gt;" style="text;html=1;align=center;verticalAlign=middle;resizable=0;points=[];autosize=1;" parent="1" vertex="1">
          <mxGeometry x="632" y="1700" width="30" height="20" as="geometry" />
        </mxCell>
        <mxCell id="Ozg4WGDt-D8WB1Kf42Ut-78" value="&lt;font style=&quot;font-size: 9px&quot;&gt;Yes&lt;/font&gt;" style="text;html=1;align=center;verticalAlign=middle;resizable=0;points=[];autosize=1;" parent="1" vertex="1">
          <mxGeometry x="432" y="1330" width="30" height="20" as="geometry" />
        </mxCell>
        <mxCell id="Ozg4WGDt-D8WB1Kf42Ut-79" value="&lt;font style=&quot;font-size: 9px&quot;&gt;No&lt;/font&gt;" style="text;html=1;align=center;verticalAlign=middle;resizable=0;points=[];autosize=1;" parent="1" vertex="1">
          <mxGeometry x="347" y="1390" width="30" height="20" as="geometry" />
        </mxCell>
        <mxCell id="Ozg4WGDt-D8WB1Kf42Ut-80" style="edgeStyle=orthogonalEdgeStyle;rounded=0;orthogonalLoop=1;jettySize=auto;html=1;exitX=0.5;exitY=1;exitDx=0;exitDy=0;entryX=0.5;entryY=0;entryDx=0;entryDy=0;" parent="1" source="Ozg4WGDt-D8WB1Kf42Ut-82" target="Ozg4WGDt-D8WB1Kf42Ut-85" edge="1">
          <mxGeometry relative="1" as="geometry" />
        </mxCell>
        <mxCell id="Ozg4WGDt-D8WB1Kf42Ut-81" style="edgeStyle=orthogonalEdgeStyle;rounded=0;orthogonalLoop=1;jettySize=auto;html=1;exitX=1;exitY=0.5;exitDx=0;exitDy=0;entryX=0.5;entryY=0;entryDx=0;entryDy=0;" parent="1" source="Ozg4WGDt-D8WB1Kf42Ut-82" target="Ozg4WGDt-D8WB1Kf42Ut-87" edge="1">
          <mxGeometry relative="1" as="geometry" />
        </mxCell>
        <mxCell id="Ozg4WGDt-D8WB1Kf42Ut-82" value="&lt;font style=&quot;font-size: 9px&quot;&gt;&lt;span style=&quot;color: rgb(36 , 41 , 46) ; font-family: , &amp;#34;consolas&amp;#34; , &amp;#34;liberation mono&amp;#34; , &amp;#34;menlo&amp;#34; , monospace ; background-color: rgb(255 , 255 , 255)&quot;&gt;num &lt;/span&gt;&lt;span style=&quot;background-color: rgb(255 , 255 , 255)&quot;&gt;&lt;font color=&quot;#d73a49&quot;&gt;=&lt;/font&gt;&lt;/span&gt;&lt;span style=&quot;color: rgb(36 , 41 , 46) ; font-family: , &amp;#34;consolas&amp;#34; , &amp;#34;liberation mono&amp;#34; , &amp;#34;menlo&amp;#34; , monospace ; background-color: rgb(255 , 255 , 255)&quot;&gt;&amp;nbsp;5&lt;/span&gt;&lt;span style=&quot;background-color: rgb(255 , 255 , 255)&quot;&gt;&lt;font color=&quot;#005cc5&quot;&gt;0&lt;/font&gt;&lt;/span&gt;&lt;/font&gt;" style="rhombus;whiteSpace=wrap;html=1;" parent="1" vertex="1">
          <mxGeometry x="347" y="1440" width="80" height="70" as="geometry" />
        </mxCell>
        <mxCell id="Ozg4WGDt-D8WB1Kf42Ut-83" style="edgeStyle=orthogonalEdgeStyle;rounded=0;orthogonalLoop=1;jettySize=auto;html=1;exitX=1;exitY=0.5;exitDx=0;exitDy=0;entryX=0.5;entryY=0;entryDx=0;entryDy=0;" parent="1" source="Ozg4WGDt-D8WB1Kf42Ut-85" target="Ozg4WGDt-D8WB1Kf42Ut-89" edge="1">
          <mxGeometry relative="1" as="geometry" />
        </mxCell>
        <mxCell id="Ozg4WGDt-D8WB1Kf42Ut-84" style="edgeStyle=orthogonalEdgeStyle;rounded=0;orthogonalLoop=1;jettySize=auto;html=1;exitX=0.5;exitY=1;exitDx=0;exitDy=0;entryX=0.5;entryY=0;entryDx=0;entryDy=0;" parent="1" source="Ozg4WGDt-D8WB1Kf42Ut-85" target="Ozg4WGDt-D8WB1Kf42Ut-94" edge="1">
          <mxGeometry relative="1" as="geometry" />
        </mxCell>
        <mxCell id="Ozg4WGDt-D8WB1Kf42Ut-85" value="&lt;font style=&quot;font-size: 9px&quot;&gt;&lt;span style=&quot;color: rgb(36 , 41 , 46) ; font-family: , &amp;#34;consolas&amp;#34; , &amp;#34;liberation mono&amp;#34; , &amp;#34;menlo&amp;#34; , monospace ; background-color: rgb(255 , 255 , 255)&quot;&gt;num &lt;/span&gt;&lt;span style=&quot;background-color: rgb(255 , 255 , 255)&quot;&gt;&lt;font color=&quot;#d73a49&quot;&gt;=&lt;/font&gt;&lt;/span&gt;&lt;span style=&quot;color: rgb(36 , 41 , 46) ; font-family: , &amp;#34;consolas&amp;#34; , &amp;#34;liberation mono&amp;#34; , &amp;#34;menlo&amp;#34; , monospace ; background-color: rgb(255 , 255 , 255)&quot;&gt;&amp;nbsp;6&lt;/span&gt;&lt;span style=&quot;background-color: rgb(255 , 255 , 255)&quot;&gt;&lt;font color=&quot;#005cc5&quot;&gt;0&lt;/font&gt;&lt;/span&gt;&lt;/font&gt;" style="rhombus;whiteSpace=wrap;html=1;" parent="1" vertex="1">
          <mxGeometry x="347" y="1630" width="80" height="70" as="geometry" />
        </mxCell>
        <mxCell id="Ozg4WGDt-D8WB1Kf42Ut-86" style="edgeStyle=orthogonalEdgeStyle;rounded=0;orthogonalLoop=1;jettySize=auto;html=1;exitX=0.5;exitY=1;exitDx=0;exitDy=0;" parent="1" source="Ozg4WGDt-D8WB1Kf42Ut-87" edge="1">
          <mxGeometry relative="1" as="geometry">
            <mxPoint x="386.9999999999998" y="1590" as="targetPoint" />
            <Array as="points">
              <mxPoint x="517" y="1590" />
            </Array>
          </mxGeometry>
        </mxCell>
        <mxCell id="Ozg4WGDt-D8WB1Kf42Ut-87" value="&lt;font&gt;&lt;font style=&quot;font-size: 9px&quot;&gt;Output&lt;br&gt;&lt;span class=&quot;pl-pds&quot; style=&quot;box-sizing: border-box ; font-family: , &amp;#34;consolas&amp;#34; , &amp;#34;liberation mono&amp;#34; , &amp;#34;menlo&amp;#34; , monospace ; background-color: rgb(255 , 255 , 255)&quot;&gt;&quot;&lt;/span&gt;&lt;span style=&quot;font-family: , &amp;#34;consolas&amp;#34; , &amp;#34;liberation mono&amp;#34; , &amp;#34;menlo&amp;#34; , monospace ; background-color: rgb(255 , 255 , 255)&quot;&gt;unlikely&lt;/span&gt;&quot;&lt;/font&gt;&lt;br&gt;&lt;/font&gt;" style="shape=parallelogram;perimeter=parallelogramPerimeter;whiteSpace=wrap;html=1;fixedSize=1;" parent="1" vertex="1">
          <mxGeometry x="477" y="1510" width="80" height="40" as="geometry" />
        </mxCell>
        <mxCell id="Ozg4WGDt-D8WB1Kf42Ut-88" style="edgeStyle=orthogonalEdgeStyle;rounded=0;orthogonalLoop=1;jettySize=auto;html=1;exitX=0.5;exitY=1;exitDx=0;exitDy=0;" parent="1" source="Ozg4WGDt-D8WB1Kf42Ut-89" edge="1">
          <mxGeometry relative="1" as="geometry">
            <mxPoint x="386.9999999999998" y="1820" as="targetPoint" />
            <Array as="points">
              <mxPoint x="517" y="1820" />
            </Array>
          </mxGeometry>
        </mxCell>
        <mxCell id="Ozg4WGDt-D8WB1Kf42Ut-89" value="&lt;font&gt;&lt;font style=&quot;font-size: 9px&quot;&gt;&quot;&lt;span style=&quot;font-family: , &amp;#34;consolas&amp;#34; , &amp;#34;liberation mono&amp;#34; , &amp;#34;menlo&amp;#34; , monospace ; background-color: rgb(255 , 255 , 255)&quot;&gt;also &lt;br&gt;unliely&lt;/span&gt;&quot;&lt;/font&gt;&lt;br&gt;&lt;/font&gt;" style="shape=parallelogram;perimeter=parallelogramPerimeter;whiteSpace=wrap;html=1;fixedSize=1;" parent="1" vertex="1">
          <mxGeometry x="477" y="1740" width="80" height="40" as="geometry" />
        </mxCell>
        <mxCell id="Ozg4WGDt-D8WB1Kf42Ut-90" value="&lt;font style=&quot;font-size: 9px&quot;&gt;Yes&lt;/font&gt;" style="text;html=1;align=center;verticalAlign=middle;resizable=0;points=[];autosize=1;" parent="1" vertex="1">
          <mxGeometry x="432" y="1450" width="30" height="20" as="geometry" />
        </mxCell>
        <mxCell id="Ozg4WGDt-D8WB1Kf42Ut-91" value="&lt;font style=&quot;font-size: 9px&quot;&gt;No&lt;/font&gt;" style="text;html=1;align=center;verticalAlign=middle;resizable=0;points=[];autosize=1;" parent="1" vertex="1">
          <mxGeometry x="362" y="1510" width="30" height="20" as="geometry" />
        </mxCell>
        <mxCell id="Ozg4WGDt-D8WB1Kf42Ut-92" value="&lt;font style=&quot;font-size: 9px&quot;&gt;Yes&lt;/font&gt;" style="text;html=1;align=center;verticalAlign=middle;resizable=0;points=[];autosize=1;" parent="1" vertex="1">
          <mxGeometry x="432" y="1640" width="30" height="20" as="geometry" />
        </mxCell>
        <mxCell id="OTiHRIJPwPJBLbjDcei9-11" style="edgeStyle=orthogonalEdgeStyle;rounded=0;orthogonalLoop=1;jettySize=auto;html=1;exitX=0.5;exitY=1;exitDx=0;exitDy=0;entryX=0.5;entryY=1;entryDx=0;entryDy=0;entryPerimeter=0;endArrow=none;endFill=0;" edge="1" parent="1" source="Ozg4WGDt-D8WB1Kf42Ut-94" target="OTiHRIJPwPJBLbjDcei9-9">
          <mxGeometry relative="1" as="geometry" />
        </mxCell>
        <mxCell id="Ozg4WGDt-D8WB1Kf42Ut-94" value="&lt;font style=&quot;font-size: 9px&quot;&gt;n++&lt;/font&gt;" style="rounded=0;whiteSpace=wrap;html=1;" parent="1" vertex="1">
          <mxGeometry x="347" y="1940" width="80" height="30" as="geometry" />
        </mxCell>
        <mxCell id="Ozg4WGDt-D8WB1Kf42Ut-95" value="&lt;font style=&quot;font-size: 9px&quot;&gt;No&lt;/font&gt;" style="text;html=1;align=center;verticalAlign=middle;resizable=0;points=[];autosize=1;" parent="1" vertex="1">
          <mxGeometry x="352" y="1710" width="30" height="20" as="geometry" />
        </mxCell>
        <mxCell id="Ozg4WGDt-D8WB1Kf42Ut-96" style="edgeStyle=orthogonalEdgeStyle;rounded=0;orthogonalLoop=1;jettySize=auto;html=1;exitX=0.5;exitY=1;exitDx=0;exitDy=0;entryX=0.5;entryY=0.5;entryDx=0;entryDy=-15;entryPerimeter=0;" parent="1" source="Ozg4WGDt-D8WB1Kf42Ut-97" target="Ozg4WGDt-D8WB1Kf42Ut-9" edge="1">
          <mxGeometry relative="1" as="geometry" />
        </mxCell>
        <mxCell id="Ozg4WGDt-D8WB1Kf42Ut-97" value="&lt;font&gt;&lt;font size=&quot;1&quot;&gt;how much &lt;br&gt;time&lt;/font&gt;&lt;br&gt;&lt;/font&gt;" style="shape=parallelogram;perimeter=parallelogramPerimeter;whiteSpace=wrap;html=1;fixedSize=1;" parent="1" vertex="1">
          <mxGeometry x="57" y="220" width="80" height="50" as="geometry" />
        </mxCell>
        <mxCell id="Ozg4WGDt-D8WB1Kf42Ut-98" value="1" style="text;html=1;align=center;verticalAlign=middle;resizable=0;points=[];autosize=1;" parent="1" vertex="1">
          <mxGeometry x="327" y="10" width="20" height="20" as="geometry" />
        </mxCell>
        <mxCell id="Ozg4WGDt-D8WB1Kf42Ut-99" value="2" style="text;html=1;align=center;verticalAlign=middle;resizable=0;points=[];autosize=1;" parent="1" vertex="1">
          <mxGeometry x="327" y="65" width="20" height="20" as="geometry" />
        </mxCell>
        <mxCell id="Ozg4WGDt-D8WB1Kf42Ut-100" value="3" style="text;html=1;align=center;verticalAlign=middle;resizable=0;points=[];autosize=1;" parent="1" vertex="1">
          <mxGeometry x="352" y="120" width="20" height="20" as="geometry" />
        </mxCell>
        <mxCell id="Ozg4WGDt-D8WB1Kf42Ut-101" value="4" style="text;html=1;align=center;verticalAlign=middle;resizable=0;points=[];autosize=1;" parent="1" vertex="1">
          <mxGeometry x="47" y="230" width="20" height="20" as="geometry" />
        </mxCell>
        <mxCell id="Ozg4WGDt-D8WB1Kf42Ut-102" value="5" style="text;html=1;align=center;verticalAlign=middle;resizable=0;points=[];autosize=1;" parent="1" vertex="1">
          <mxGeometry x="327" y="240" width="20" height="20" as="geometry" />
        </mxCell>
        <mxCell id="Ozg4WGDt-D8WB1Kf42Ut-103" value="32" style="text;html=1;align=center;verticalAlign=middle;resizable=0;points=[];autosize=1;" parent="1" vertex="1">
          <mxGeometry x="32" y="300" width="30" height="20" as="geometry" />
        </mxCell>
        <mxCell id="Ozg4WGDt-D8WB1Kf42Ut-104" value="6" style="text;html=1;align=center;verticalAlign=middle;resizable=0;points=[];autosize=1;" parent="1" vertex="1">
          <mxGeometry x="347" y="310" width="20" height="20" as="geometry" />
        </mxCell>
        <mxCell id="Ozg4WGDt-D8WB1Kf42Ut-105" value="7" style="text;html=1;align=center;verticalAlign=middle;resizable=0;points=[];autosize=1;" parent="1" vertex="1">
          <mxGeometry x="457" y="370" width="20" height="20" as="geometry" />
        </mxCell>
        <mxCell id="Ozg4WGDt-D8WB1Kf42Ut-106" value="8" style="text;html=1;align=center;verticalAlign=middle;resizable=0;points=[];autosize=1;" parent="1" vertex="1">
          <mxGeometry x="327" y="420" width="20" height="20" as="geometry" />
        </mxCell>
        <mxCell id="Ozg4WGDt-D8WB1Kf42Ut-107" value="9" style="text;html=1;align=center;verticalAlign=middle;resizable=0;points=[];autosize=1;" parent="1" vertex="1">
          <mxGeometry x="352" y="480" width="20" height="20" as="geometry" />
        </mxCell>
        <mxCell id="Ozg4WGDt-D8WB1Kf42Ut-108" value="10" style="text;html=1;align=center;verticalAlign=middle;resizable=0;points=[];autosize=1;" parent="1" vertex="1">
          <mxGeometry x="197" y="555" width="30" height="20" as="geometry" />
        </mxCell>
        <mxCell id="Ozg4WGDt-D8WB1Kf42Ut-109" value="11" style="text;html=1;align=center;verticalAlign=middle;resizable=0;points=[];autosize=1;" parent="1" vertex="1">
          <mxGeometry x="322" y="610" width="30" height="20" as="geometry" />
        </mxCell>
        <mxCell id="Ozg4WGDt-D8WB1Kf42Ut-110" value="12" style="text;html=1;align=center;verticalAlign=middle;resizable=0;points=[];autosize=1;" parent="1" vertex="1">
          <mxGeometry x="337" y="680" width="30" height="20" as="geometry" />
        </mxCell>
        <mxCell id="Ozg4WGDt-D8WB1Kf42Ut-111" value="13" style="text;html=1;align=center;verticalAlign=middle;resizable=0;points=[];autosize=1;" parent="1" vertex="1">
          <mxGeometry x="452" y="725" width="30" height="20" as="geometry" />
        </mxCell>
        <mxCell id="Ozg4WGDt-D8WB1Kf42Ut-112" value="14" style="text;html=1;align=center;verticalAlign=middle;resizable=0;points=[];autosize=1;" parent="1" vertex="1">
          <mxGeometry x="317" y="780" width="30" height="20" as="geometry" />
        </mxCell>
        <mxCell id="Ozg4WGDt-D8WB1Kf42Ut-113" value="15" style="text;html=1;align=center;verticalAlign=middle;resizable=0;points=[];autosize=1;" parent="1" vertex="1">
          <mxGeometry x="347" y="840" width="30" height="20" as="geometry" />
        </mxCell>
        <mxCell id="Ozg4WGDt-D8WB1Kf42Ut-114" value="16" style="text;html=1;align=center;verticalAlign=middle;resizable=0;points=[];autosize=1;" parent="1" vertex="1">
          <mxGeometry x="197" y="910" width="30" height="20" as="geometry" />
        </mxCell>
        <mxCell id="Ozg4WGDt-D8WB1Kf42Ut-115" value="17" style="text;html=1;align=center;verticalAlign=middle;resizable=0;points=[];autosize=1;" parent="1" vertex="1">
          <mxGeometry x="322" y="970" width="30" height="20" as="geometry" />
        </mxCell>
        <mxCell id="Ozg4WGDt-D8WB1Kf42Ut-116" value="18" style="text;html=1;align=center;verticalAlign=middle;resizable=0;points=[];autosize=1;" parent="1" vertex="1">
          <mxGeometry x="337" y="1030" width="30" height="20" as="geometry" />
        </mxCell>
        <mxCell id="Ozg4WGDt-D8WB1Kf42Ut-117" value="19" style="text;html=1;align=center;verticalAlign=middle;resizable=0;points=[];autosize=1;" parent="1" vertex="1">
          <mxGeometry x="447" y="1085" width="30" height="20" as="geometry" />
        </mxCell>
        <mxCell id="Ozg4WGDt-D8WB1Kf42Ut-118" value="20" style="text;html=1;align=center;verticalAlign=middle;resizable=0;points=[];autosize=1;" parent="1" vertex="1">
          <mxGeometry x="317" y="1250" width="30" height="20" as="geometry" />
        </mxCell>
        <mxCell id="Ozg4WGDt-D8WB1Kf42Ut-119" value="21" style="text;html=1;align=center;verticalAlign=middle;resizable=0;points=[];autosize=1;" parent="1" vertex="1">
          <mxGeometry x="332" y="1330" width="30" height="20" as="geometry" />
        </mxCell>
        <mxCell id="Ozg4WGDt-D8WB1Kf42Ut-120" value="22" style="text;html=1;align=center;verticalAlign=middle;resizable=0;points=[];autosize=1;" parent="1" vertex="1">
          <mxGeometry x="332" y="1450" width="30" height="20" as="geometry" />
        </mxCell>
        <mxCell id="Ozg4WGDt-D8WB1Kf42Ut-121" value="23" style="text;html=1;align=center;verticalAlign=middle;resizable=0;points=[];autosize=1;" parent="1" vertex="1">
          <mxGeometry x="462" y="1510" width="30" height="20" as="geometry" />
        </mxCell>
        <mxCell id="Ozg4WGDt-D8WB1Kf42Ut-122" value="24" style="text;html=1;align=center;verticalAlign=middle;resizable=0;points=[];autosize=1;" parent="1" vertex="1">
          <mxGeometry x="337" y="1630" width="30" height="20" as="geometry" />
        </mxCell>
        <mxCell id="Ozg4WGDt-D8WB1Kf42Ut-123" value="25" style="text;html=1;align=center;verticalAlign=middle;resizable=0;points=[];autosize=1;" parent="1" vertex="1">
          <mxGeometry x="462" y="1740" width="30" height="20" as="geometry" />
        </mxCell>
        <mxCell id="Ozg4WGDt-D8WB1Kf42Ut-124" value="26" style="text;html=1;align=center;verticalAlign=middle;resizable=0;points=[];autosize=1;" parent="1" vertex="1">
          <mxGeometry x="617" y="1440" width="30" height="20" as="geometry" />
        </mxCell>
        <mxCell id="Ozg4WGDt-D8WB1Kf42Ut-125" value="27" style="text;html=1;align=center;verticalAlign=middle;resizable=0;points=[];autosize=1;" parent="1" vertex="1">
          <mxGeometry x="732" y="1510" width="30" height="20" as="geometry" />
        </mxCell>
        <mxCell id="Ozg4WGDt-D8WB1Kf42Ut-126" value="28" style="text;html=1;align=center;verticalAlign=middle;resizable=0;points=[];autosize=1;" parent="1" vertex="1">
          <mxGeometry x="617" y="1630" width="30" height="20" as="geometry" />
        </mxCell>
        <mxCell id="Ozg4WGDt-D8WB1Kf42Ut-127" value="29" style="text;html=1;align=center;verticalAlign=middle;resizable=0;points=[];autosize=1;" parent="1" vertex="1">
          <mxGeometry x="602" y="1740" width="30" height="20" as="geometry" />
        </mxCell>
        <mxCell id="Ozg4WGDt-D8WB1Kf42Ut-128" value="30" style="text;html=1;align=center;verticalAlign=middle;resizable=0;points=[];autosize=1;" parent="1" vertex="1">
          <mxGeometry x="732" y="1740" width="30" height="20" as="geometry" />
        </mxCell>
        <mxCell id="Ozg4WGDt-D8WB1Kf42Ut-129" value="31" style="text;html=1;align=center;verticalAlign=middle;resizable=0;points=[];autosize=1;" parent="1" vertex="1">
          <mxGeometry x="317" y="1940" width="30" height="20" as="geometry" />
        </mxCell>
        <mxCell id="OTiHRIJPwPJBLbjDcei9-4" value="A" style="strokeWidth=2;html=1;shape=mxgraph.flowchart.start_2;whiteSpace=wrap;" vertex="1" parent="1">
          <mxGeometry x="373.5" y="1120" width="27" height="27" as="geometry" />
        </mxCell>
        <mxCell id="OTiHRIJPwPJBLbjDcei9-7" style="edgeStyle=orthogonalEdgeStyle;rounded=0;orthogonalLoop=1;jettySize=auto;html=1;exitX=0.5;exitY=1;exitDx=0;exitDy=0;exitPerimeter=0;entryX=0.5;entryY=0;entryDx=0;entryDy=0;endArrow=classic;endFill=1;" edge="1" parent="1" source="OTiHRIJPwPJBLbjDcei9-6" target="Ozg4WGDt-D8WB1Kf42Ut-58">
          <mxGeometry relative="1" as="geometry" />
        </mxCell>
        <mxCell id="OTiHRIJPwPJBLbjDcei9-6" value="A" style="strokeWidth=2;html=1;shape=mxgraph.flowchart.start_2;whiteSpace=wrap;" vertex="1" parent="1">
          <mxGeometry x="373.5" y="1180" width="27" height="27" as="geometry" />
        </mxCell>
        <mxCell id="OTiHRIJPwPJBLbjDcei9-13" style="edgeStyle=orthogonalEdgeStyle;rounded=0;orthogonalLoop=1;jettySize=auto;html=1;exitX=0.5;exitY=0;exitDx=0;exitDy=0;exitPerimeter=0;endArrow=classic;endFill=1;" edge="1" parent="1" source="OTiHRIJPwPJBLbjDcei9-8">
          <mxGeometry relative="1" as="geometry">
            <mxPoint x="386" y="1010" as="targetPoint" />
            <Array as="points">
              <mxPoint x="186" y="1010" />
            </Array>
          </mxGeometry>
        </mxCell>
        <mxCell id="OTiHRIJPwPJBLbjDcei9-8" value="B" style="strokeWidth=2;html=1;shape=mxgraph.flowchart.start_2;whiteSpace=wrap;" vertex="1" parent="1">
          <mxGeometry x="172" y="1120" width="27" height="27" as="geometry" />
        </mxCell>
        <mxCell id="OTiHRIJPwPJBLbjDcei9-9" value="B" style="strokeWidth=2;html=1;shape=mxgraph.flowchart.start_2;whiteSpace=wrap;" vertex="1" parent="1">
          <mxGeometry x="172" y="1180" width="27" height="27" as="geometry" />
        </mxCell>
      </root>
    </mxGraphModel>
  </diagram>
</mxfile>
